<svg width="27" height="27" viewBox="0 0 27 27" fill="none" xmlns="http://www.w3.org/2000/svg">
<path d="M13.464 0C6.027 0 0 6.025 0 13.462C0 20.897 6.027 26.924 13.464 26.924C20.896 26.924 26.927 20.897 26.927 13.462C26.928 6.025 20.896 0 13.464 0ZM22.816 15.3L16.461 21.654C15.635 22.482 14.34 22.521 13.566 21.748C12.794 20.975 12.834 19.68 13.66 18.855L16.7 15.813H5.447C4.35 15.813 3.465 14.925 3.463 13.832C3.463 12.738 4.35 11.852 5.447 11.852H16.758L13.702 8.798C12.89 7.984 12.855 6.695 13.632 5.923C14.405 5.151 15.69 5.182 16.503 5.996L22.774 12.264C22.801 12.291 22.821 12.326 22.844 12.352C22.867 12.372 22.891 12.385 22.91 12.406C23.684 13.175 23.643 14.472 22.816 15.3Z" fill="#3A72F8"/>
</svg>
