<svg width="26" height="26" viewBox="0 0 26 26" fill="none" xmlns="http://www.w3.org/2000/svg">
<g clip-path="url(#clip0_4_109)">
<path d="M12.9998 0C5.82036 0 6.10352e-05 5.82039 6.10352e-05 12.9999C6.10352e-05 20.1791 5.82028 26 12.9997 26C20.1791 26 25.9999 20.1791 25.9999 12.9999C25.9999 5.82039 20.1792 0 12.9998 0ZM17.9037 17.9546C17.3847 18.4732 16.5439 18.4732 16.0253 17.9546L13.0672 14.9966L9.97443 18.0893C9.45565 18.6079 8.61473 18.6079 8.09621 18.0893C7.57717 17.5701 7.57717 16.7294 8.09621 16.2104L11.1887 13.1179L8.30932 10.2387C7.79071 9.71948 7.79071 8.87882 8.30932 8.35996C8.8281 7.84118 9.66919 7.84118 10.1881 8.35996L13.0673 11.2392L15.8121 8.4942C16.3308 7.97559 17.1722 7.97542 17.6905 8.4942C18.2096 9.01342 18.2096 9.8546 17.6905 10.3729L14.946 13.1177L17.9039 16.0758C18.4225 16.5943 18.4228 17.4357 17.9037 17.9546Z" fill="#3A72F8"/>
</g>
<defs>
<clipPath id="clip0_4_109">
<rect width="26" height="26" fill="white"/>
</clipPath>
</defs>
</svg>
