<svg width="26" height="26" viewBox="0 0 26 26" fill="none" xmlns="http://www.w3.org/2000/svg">
<g clip-path="url(#clip0_4_71)">
<path d="M13 0C5.832 0 0 5.8315 0 13C0 20.1685 5.832 26 13 26C20.168 26 26 20.1685 26 13C26 5.8315 20.168 0 13 0ZM19.25 14H14V19.5C14 20.052 13.552 20.5 13 20.5C12.448 20.5 12 20.052 12 19.5V14H6.75C6.198 14 5.75 13.552 5.75 13C5.75 12.448 6.198 12 6.75 12H12V7C12 6.448 12.448 6 13 6C13.552 6 14 6.448 14 7V12H19.25C19.802 12 20.25 12.448 20.25 13C20.25 13.552 19.802 14 19.25 14Z" fill="#3A72F8"/>
</g>
<defs>
<clipPath id="clip0_4_71">
<rect width="26" height="26" fill="white"/>
</clipPath>
</defs>
</svg>
