<svg width="26" height="33" viewBox="0 0 26 33" fill="none" xmlns="http://www.w3.org/2000/svg">
<path d="M20.2543 2.7488H14.2226V0H6.03173V2.7488H0V7.089H20.2543V2.7488ZM8.20183 2.1701H12.0525V2.7488H8.20183V2.1701Z" fill="#3A72F8"/>
<path d="M18.3271 15.5025L18.7365 9.25911H1.51794L2.8935 30.2368H11.1523C10.0773 28.7128 9.44504 26.8553 9.44504 24.8527C9.44504 19.8514 13.387 15.7534 18.3271 15.5025Z" fill="#3A72F8"/>
<path d="M18.8076 17.6604C14.8416 17.6604 11.6151 20.8869 11.6151 24.8527C11.6151 28.8186 14.8416 32.0452 18.8076 32.0452C22.7735 32.0452 26 28.8187 26 24.8527C26 20.8868 22.7735 17.6604 18.8076 17.6604ZM22.7265 27.2372L21.192 28.7717L18.8076 26.3872L16.4231 28.7717L14.8886 27.2372L17.2731 24.8527L14.8886 22.4683L16.4231 20.9338L18.8076 23.3183L21.192 20.9338L22.7265 22.4683L20.342 24.8527L22.7265 27.2372Z" fill="#3A72F8"/>
</svg>
