<svg width="26" height="26" viewBox="0 0 26 26" fill="none" xmlns="http://www.w3.org/2000/svg">
<g clip-path="url(#clip0_4_89)">
<path d="M25.7061 4.61936L21.381 0.293783C21.1929 0.105639 20.9377 0 20.6718 0C20.4058 0 20.1507 0.105639 19.9627 0.293649L15.6368 4.61949C15.6363 4.62003 15.6357 4.62083 15.6351 4.62137L7.33801 12.9184C7.15735 13.0992 7.05252 13.3418 7.04476 13.5972L6.90904 18.0582C6.90061 18.3346 7.00678 18.6022 7.20228 18.7978C7.39069 18.9861 7.64583 19.0915 7.9114 19.0915C7.92156 19.0915 7.93186 19.0914 7.94202 19.091L12.4029 18.9548C12.6582 18.9471 12.9009 18.8422 13.0816 18.6617L25.7061 6.03746C26.0977 5.64606 26.0977 5.01103 25.7061 4.61936ZM20.6714 8.23542L17.7643 5.32875L20.6718 2.42127L23.5786 5.32848L20.6714 8.23542ZM11.9444 16.9624L8.94626 17.054L9.03746 14.0557L16.3459 6.74712L19.2531 9.65392L11.9444 16.9624Z" fill="#3A72F8"/>
<path d="M17.6763 15.6576C17.1224 15.6576 16.6734 16.1065 16.6734 16.6605V23.9942H2.00592V9.32671H9.33967C9.89354 9.32671 10.3426 8.87781 10.3426 8.32381C10.3426 7.76981 9.89354 7.32091 9.33967 7.32091H1.00302C0.449154 7.32091 0.00012207 7.76981 0.00012207 8.32381V24.997C0.00012207 25.551 0.449154 25.9999 1.00302 25.9999H17.6762C18.23 25.9999 18.6791 25.551 18.6791 24.997V16.6603C18.6792 16.1065 18.2302 15.6576 17.6763 15.6576Z" fill="#3A72F8"/>
</g>
<defs>
<clipPath id="clip0_4_89">
<rect width="26" height="26" fill="white"/>
</clipPath>
</defs>
</svg>
