<svg width="22" height="23" viewBox="0 0 22 23" fill="none" xmlns="http://www.w3.org/2000/svg">
<path d="M0.8125 0C0.369383 0 0 0.369383 0 0.8125V20.3125C0 20.7556 0.369383 21.125 0.8125 21.125H11.7305V20.3125H0.8125V0.8125H4.03076V5.7652C4.03076 5.96446 4.2056 6.12549 4.42279 6.12549H13.046C13.2631 6.12549 13.438 5.96451 13.438 5.76525V0.8125H16.9531C16.9748 0.828648 16.9937 0.840328 17.0276 0.868055C17.1317 0.953113 17.2795 1.08459 17.4529 1.24414C17.7995 1.5632 18.2476 1.99758 18.6875 2.4375C19.1274 2.87742 19.5618 3.32546 19.8809 3.67214C20.0404 3.84546 20.1718 3.99328 20.2569 4.09739C20.2847 4.13131 20.2964 4.1502 20.3125 4.17204V14.333L21.125 15.1455V4.0625C21.125 3.92641 21.0916 3.88974 21.0727 3.85145C21.0537 3.81316 21.0359 3.78574 21.0171 3.75781C20.9795 3.70195 20.9371 3.6466 20.8854 3.58323C20.782 3.45668 20.6432 3.30139 20.4776 3.12147C20.1463 2.76143 19.708 2.30897 19.262 1.86301C18.816 1.417 18.3636 0.978707 18.0036 0.64741C17.8236 0.481762 17.6685 0.343027 17.5418 0.239637C17.4785 0.18784 17.4231 0.145438 17.3672 0.107859C17.3393 0.0890703 17.3119 0.0712968 17.2736 0.0523046C17.2353 0.0333632 17.1986 0 17.0626 0H0.8125ZM5.26703 0.8125H7.73297C7.95016 0.8125 8.125 1.03721 8.125 1.31716V4.87815C8.125 5.15811 7.95016 5.38281 7.73297 5.38281H5.26703C5.04984 5.38281 4.875 5.15811 4.875 4.87815V1.31716C4.875 1.03726 5.04984 0.812551 5.26703 0.812551V0.8125ZM3.35156 8.32812C3.1265 8.32812 2.94531 8.50931 2.94531 8.73438V18.0781C2.94531 18.3032 3.1265 18.4844 3.35156 18.4844H11.7305V17.0625H7.83453L8.61377 16.2817L15.1138 9.78174L15.4375 9.45953L15.7612 9.78174L18.1797 12.2002V8.73438C18.1797 8.50931 17.9985 8.32812 17.7734 8.32812H3.35156ZM15.4375 10.7529L10.042 16.1484H12.6445V22.6484H18.2305V16.1484H20.833L15.4375 10.7529ZM20.3125 17.0625V20.3125H19.1445V21.125H20.3125C20.7556 21.125 21.125 20.7556 21.125 20.3125V17.0625H20.3125Z" fill="#3A72F8"/>
</svg>
