<svg width="27" height="27" viewBox="0 0 27 27" fill="none" xmlns="http://www.w3.org/2000/svg">
<path d="M13.463 26.924C20.9 26.924 26.927 20.899 26.927 13.462C26.927 6.027 20.9 -3.8147e-06 13.463 -3.8147e-06C6.031 -3.8147e-06 1.90735e-06 6.027 1.90735e-06 13.462C-0.000997543 20.899 6.031 26.924 13.463 26.924ZM4.111 11.624L10.466 5.27C11.292 4.442 12.587 4.403 13.361 5.176C14.133 5.949 14.093 7.244 13.267 8.069L10.227 11.111L21.48 11.111C22.577 11.111 23.462 11.999 23.464 13.092C23.464 14.186 22.577 15.072 21.48 15.072L10.169 15.072L13.225 18.126C14.037 18.94 14.072 20.229 13.295 21.001C12.522 21.773 11.237 21.742 10.424 20.928L4.153 14.66C4.126 14.633 4.106 14.598 4.083 14.572C4.06 14.552 4.036 14.539 4.017 14.518C3.243 13.749 3.284 12.452 4.111 11.624Z" fill="#3A72F8"/>
</svg>
